<svg xmlns="http://www.w3.org/2000/svg" xmlns:xlink="http://www.w3.org/1999/xlink" width="256" height="256" viewBox="0 0 256 256" fill="none">
<path d="M205.748 56.1116L182.499 56.1116L182.499 41.5382C182.499 41.1574 182.489 40.7767 182.47 40.3962C182.451 40.0157 182.422 39.6359 182.385 39.2567C182.347 38.8777 182.3 38.4998 182.244 38.123C182.187 37.7462 182.122 37.3709 182.047 36.9972C181.973 36.6237 181.889 36.2522 181.796 35.8827C181.703 35.5132 181.601 35.1462 181.49 34.7817C181.38 34.4172 181.26 34.0557 181.131 33.6972C181.003 33.3386 180.865 32.9833 180.719 32.6315C180.573 32.2795 180.419 31.9313 180.256 31.587C180.093 31.2428 179.921 30.9027 179.741 30.5667C179.562 30.2309 179.374 29.8997 179.178 29.573C178.982 29.2462 178.778 28.9244 178.566 28.6077C178.355 28.2911 178.135 27.9797 177.908 27.6737C177.681 27.3679 177.447 27.0677 177.205 26.7732C176.963 26.4787 176.715 26.1903 176.459 25.908C176.203 25.6258 175.94 25.3501 175.671 25.0807C175.401 24.8113 175.126 24.5486 174.843 24.2927C174.561 24.0369 174.273 23.7881 173.978 23.5463C173.684 23.3046 173.383 23.0702 173.077 22.8432C172.772 22.6162 172.46 22.3968 172.143 22.185C171.827 21.9733 171.505 21.7694 171.178 21.5734C170.852 21.3775 170.52 21.1896 170.184 21.0098C169.849 20.8301 169.509 20.6587 169.164 20.4956C168.82 20.3325 168.472 20.178 168.12 20.032C167.768 19.886 167.413 19.7487 167.054 19.6201C166.696 19.4915 166.334 19.3718 165.969 19.2609C165.605 19.15 165.238 19.0482 164.869 18.9553C164.499 18.8624 164.128 18.7786 163.754 18.704C163.38 18.6293 163.005 18.5638 162.628 18.5076C162.252 18.4513 161.874 18.4043 161.494 18.3665C161.115 18.3288 160.736 18.3003 160.355 18.2812C159.975 18.2621 159.594 18.2523 159.213 18.2518L102.732 18.2518C102.351 18.2524 101.97 18.2624 101.59 18.2817C101.21 18.3009 100.83 18.3295 100.451 18.3674C100.072 18.4053 99.6942 18.4524 99.3174 18.5088C98.9409 18.5652 98.5657 18.6308 98.1922 18.7056C97.8187 18.7804 97.4474 18.8642 97.0779 18.9572C96.7087 19.0502 96.3419 19.1522 95.9774 19.2631C95.6132 19.3741 95.2517 19.4939 94.8932 19.6226C94.5347 19.7513 94.1797 19.8886 93.8277 20.0347C93.4762 20.1808 93.1282 20.3354 92.7839 20.4985C92.4399 20.6616 92.0999 20.8331 91.7639 21.0129C91.4282 21.1927 91.0969 21.3806 90.7704 21.5766C90.4439 21.7727 90.1224 21.9766 89.8057 22.1883C89.4892 22.4001 89.1782 22.6195 88.8722 22.8465C88.5664 23.0736 88.2664 23.308 87.9719 23.5497C87.6777 23.7914 87.3894 24.0402 87.1072 24.2961C86.8252 24.552 86.5497 24.8146 86.2802 25.084C86.0109 25.3533 85.7484 25.6292 85.4927 25.9115C85.2369 26.1937 84.9882 26.482 84.7467 26.7765C84.5052 27.0708 84.2709 27.371 84.0439 27.677C83.8169 27.9828 83.5977 28.2941 83.3859 28.6107C83.1744 28.9274 82.9707 29.2491 82.7747 29.5757C82.5789 29.9024 82.3912 30.2337 82.2114 30.5695C82.0319 30.9053 81.8604 31.2453 81.6974 31.5895C81.5344 31.9338 81.3799 32.2818 81.2339 32.6335C81.0882 32.9853 80.9509 33.3405 80.8224 33.699C80.6939 34.0577 80.5742 34.4192 80.4632 34.7835C80.3527 35.1478 80.2509 35.5147 80.1579 35.8842C80.0652 36.2536 79.9814 36.625 79.9067 36.9985C79.8322 37.372 79.7667 37.7471 79.7104 38.1237C79.6542 38.5004 79.6072 38.8782 79.5694 39.2572C79.5317 39.6362 79.5032 40.016 79.4842 40.3965C79.4652 40.7768 79.4552 41.1574 79.4547 41.5382L79.4547 56.1116L50.2517 56.1116C30.3502 56.1116 14.2317 72.2301 14.2317 92.0463L14.2317 105.984C14.2317 116.509 22.8598 125.137 33.3842 125.137L34.4272 125.137L34.4272 183.448C34.4277 184.053 34.4427 184.659 34.472 185.264C34.5015 185.869 34.5455 186.473 34.604 187.076C34.6625 187.678 34.7354 188.279 34.8227 188.879C34.9101 189.478 35.0117 190.075 35.1277 190.67C35.2437 191.264 35.3739 191.855 35.5182 192.444C35.6627 193.032 35.8212 193.616 35.9937 194.197C36.1661 194.777 36.3523 195.353 36.5525 195.925C36.7527 196.497 36.9664 197.063 37.1937 197.625C37.4211 198.186 37.6617 198.742 37.9157 199.292C38.1697 199.841 38.4367 200.385 38.7167 200.922C38.9969 201.459 39.2897 201.989 39.5952 202.512C39.9009 203.035 40.2189 203.55 40.5489 204.058C40.8794 204.565 41.2217 205.065 41.5759 205.556C41.9304 206.047 42.2962 206.53 42.6734 207.004C43.0509 207.477 43.4397 207.942 43.8392 208.397C44.2392 208.852 44.6497 209.297 45.0707 209.732C45.4917 210.167 45.9232 210.592 46.3647 211.007C46.8062 211.422 47.2574 211.825 47.7182 212.218C48.1792 212.611 48.6494 212.993 49.1284 213.363C49.6079 213.734 50.0957 214.092 50.5919 214.439C51.0884 214.786 51.5929 215.121 52.1054 215.444C52.6182 215.766 53.1382 216.077 53.6654 216.375C54.1929 216.672 54.7274 216.957 55.2684 217.229C55.8094 217.501 56.3569 217.76 56.9104 218.006C57.4639 218.252 58.0232 218.484 58.5877 218.703C59.1527 218.922 59.7222 219.128 60.2967 219.319C60.8712 219.511 61.4502 219.688 62.0332 219.852C62.6164 220.016 63.2032 220.166 63.7932 220.302C64.3837 220.437 64.9769 220.559 65.5729 220.666C66.1692 220.773 66.7674 220.866 67.3679 220.944C67.9687 221.023 68.5709 221.087 69.1744 221.136C69.7779 221.186 70.3824 221.221 70.9877 221.241L70.9877 228.267C70.9877 228.422 70.9917 228.577 70.9992 228.732C71.0069 228.887 71.0184 229.042 71.0334 229.196C71.0487 229.35 71.0677 229.504 71.0904 229.658C71.1132 229.811 71.1397 229.964 71.1699 230.117C71.2004 230.269 71.2344 230.42 71.2719 230.571C71.3097 230.721 71.3509 230.871 71.3959 231.019C71.4412 231.168 71.4899 231.315 71.5419 231.461C71.5944 231.607 71.6502 231.752 71.7094 231.895C71.7689 232.038 71.8319 232.18 71.8982 232.321C71.9647 232.461 72.0344 232.599 72.1074 232.736C72.1804 232.873 72.2569 233.008 72.3367 233.141C72.4167 233.274 72.4997 233.405 72.5857 233.534C72.6719 233.663 72.7612 233.79 72.8537 233.915C72.9462 234.039 73.0417 234.162 73.1399 234.282C73.2384 234.402 73.3399 234.519 73.4439 234.634C73.5482 234.749 73.6552 234.861 73.7649 234.971C73.8747 235.081 73.9869 235.188 74.1019 235.292C74.2169 235.396 74.3344 235.498 74.4542 235.596C74.5742 235.694 74.6967 235.79 74.8212 235.882C74.9459 235.975 75.0727 236.064 75.2017 236.15C75.3307 236.236 75.4617 236.319 75.5947 236.399C75.7279 236.479 75.8629 236.555 75.9997 236.629C76.1367 236.702 76.2752 236.771 76.4154 236.838C76.5557 236.904 76.6974 236.967 76.8409 237.027C76.9844 237.086 77.1289 237.142 77.2749 237.194C77.4212 237.246 77.5684 237.295 77.7169 237.34C77.8654 237.385 78.0149 237.426 78.1654 237.464C78.3159 237.502 78.4674 237.536 78.6194 237.566C78.7717 237.596 78.9244 237.623 79.0779 237.646C79.2314 237.668 79.3854 237.687 79.5399 237.703C79.6944 237.718 79.8489 237.729 80.0039 237.737C80.1589 237.744 80.3142 237.748 80.4692 237.748C80.6244 237.748 80.7794 237.744 80.9344 237.737C81.0894 237.729 81.2442 237.718 81.3987 237.703C81.5532 237.687 81.7069 237.668 81.8604 237.646C82.0139 237.623 82.1669 237.596 82.3189 237.566C82.4712 237.536 82.6227 237.502 82.7732 237.464C82.9237 237.426 83.0732 237.385 83.2217 237.34C83.3702 237.295 83.5174 237.246 83.6634 237.194C83.8097 237.142 83.9544 237.086 84.0977 237.027C84.2412 236.967 84.3829 236.904 84.5232 236.838C84.6634 236.771 84.8019 236.702 84.9387 236.629C85.0757 236.555 85.2107 236.479 85.3437 236.399C85.4769 236.319 85.6079 236.236 85.7369 236.15C85.8659 236.064 85.9929 235.975 86.1174 235.882C86.2422 235.79 86.3644 235.694 86.4842 235.596C86.6042 235.498 86.7217 235.396 86.8367 235.292C86.9517 235.188 87.0642 235.081 87.1737 234.971C87.2834 234.861 87.3904 234.749 87.4947 234.634C87.5989 234.519 87.7002 234.402 87.7984 234.282C87.8969 234.162 87.9924 234.039 88.0849 233.915C88.1774 233.79 88.2667 233.663 88.3529 233.534C88.4392 233.405 88.5222 233.274 88.6017 233.141C88.6817 233.008 88.7582 232.873 88.8312 232.736C88.9044 232.599 88.9742 232.461 89.0404 232.321C89.1069 232.18 89.1697 232.038 89.2289 231.895C89.2884 231.752 89.3444 231.607 89.3964 231.461C89.4489 231.315 89.4974 231.168 89.5424 231.019C89.5874 230.871 89.6289 230.721 89.6667 230.571C89.7044 230.42 89.7384 230.269 89.7684 230.117C89.7989 229.964 89.8254 229.811 89.8482 229.658C89.8709 229.504 89.8899 229.35 89.9052 229.196C89.9204 229.042 89.9319 228.887 89.9394 228.732C89.9469 228.577 89.9507 228.422 89.9507 228.267L89.9507 221.374L165.006 221.374L165.006 228.267C165.006 228.422 165.01 228.577 165.017 228.732C165.025 228.887 165.037 229.042 165.052 229.196C165.067 229.35 165.086 229.504 165.109 229.658C165.131 229.811 165.158 229.964 165.188 230.117C165.219 230.269 165.252 230.42 165.29 230.571C165.328 230.721 165.369 230.871 165.414 231.019C165.459 231.168 165.508 231.315 165.56 231.461C165.613 231.607 165.668 231.752 165.728 231.895C165.787 232.038 165.85 232.18 165.916 232.321C165.983 232.461 166.053 232.599 166.126 232.736C166.199 232.873 166.275 233.008 166.355 233.141C166.435 233.274 166.518 233.405 166.604 233.534C166.69 233.663 166.78 233.79 166.872 233.915C166.964 234.039 167.06 234.162 167.158 234.282C167.257 234.402 167.358 234.519 167.462 234.634C167.567 234.749 167.674 234.861 167.783 234.971C167.893 235.081 168.005 235.188 168.12 235.292C168.235 235.396 168.353 235.498 168.473 235.596C168.593 235.694 168.715 235.79 168.839 235.882C168.964 235.975 169.091 236.064 169.22 236.15C169.349 236.236 169.48 236.319 169.613 236.399C169.746 236.479 169.881 236.555 170.018 236.629C170.155 236.702 170.293 236.771 170.434 236.838C170.574 236.904 170.716 236.967 170.859 237.027C171.002 237.086 171.147 237.142 171.293 237.194C171.439 237.246 171.587 237.295 171.735 237.34C171.884 237.385 172.033 237.426 172.184 237.464C172.334 237.502 172.486 237.536 172.638 237.566C172.79 237.596 172.943 237.623 173.096 237.646C173.25 237.668 173.404 237.687 173.558 237.703C173.713 237.718 173.867 237.729 174.022 237.737C174.177 237.744 174.333 237.748 174.488 237.748C174.643 237.748 174.798 237.744 174.953 237.737C175.108 237.729 175.263 237.718 175.417 237.703C175.571 237.687 175.725 237.668 175.879 237.646C176.032 237.623 176.185 237.596 176.337 237.566C176.49 237.536 176.641 237.502 176.791 237.464C176.942 237.426 177.091 237.385 177.24 237.34C177.388 237.295 177.536 237.246 177.682 237.194C177.828 237.142 177.973 237.086 178.116 237.027C178.259 236.967 178.401 236.904 178.541 236.838C178.682 236.771 178.82 236.702 178.957 236.629C179.094 236.555 179.229 236.479 179.362 236.399C179.495 236.319 179.626 236.236 179.755 236.15C179.884 236.064 180.011 235.975 180.136 235.882C180.26 235.79 180.383 235.694 180.503 235.596C180.623 235.498 180.74 235.396 180.855 235.292C180.97 235.188 181.082 235.081 181.192 234.971C181.302 234.861 181.409 234.749 181.513 234.634C181.617 234.519 181.718 234.402 181.817 234.282C181.915 234.162 182.011 234.039 182.103 233.915C182.196 233.79 182.285 233.663 182.371 233.534C182.457 233.405 182.54 233.274 182.62 233.141C182.7 233.008 182.776 232.873 182.849 232.736C182.923 232.599 182.992 232.461 183.059 232.321C183.125 232.18 183.188 232.038 183.247 231.895C183.307 231.752 183.363 231.607 183.415 231.461C183.467 231.315 183.516 231.168 183.561 231.019C183.606 230.871 183.647 230.721 183.685 230.571C183.723 230.42 183.757 230.269 183.787 230.117C183.817 229.964 183.844 229.811 183.866 229.658C183.889 229.504 183.908 229.35 183.923 229.196C183.939 229.042 183.95 228.887 183.958 228.732C183.965 228.577 183.969 228.422 183.969 228.267L183.969 221.241C184.575 221.221 185.179 221.186 185.783 221.137C186.387 221.088 186.989 221.024 187.59 220.946C188.191 220.868 188.79 220.775 189.386 220.668C189.982 220.561 190.576 220.44 191.166 220.305C191.757 220.169 192.344 220.02 192.927 219.856C193.511 219.692 194.09 219.515 194.664 219.323C195.239 219.132 195.809 218.927 196.374 218.708C196.939 218.489 197.499 218.257 198.052 218.011C198.606 217.766 199.154 217.507 199.695 217.235C200.237 216.963 200.771 216.678 201.299 216.38C201.827 216.083 202.347 215.772 202.86 215.45C203.373 215.127 203.877 214.793 204.374 214.446C204.871 214.099 205.359 213.74 205.838 213.37C206.318 212.999 206.788 212.618 207.249 212.225C207.711 211.832 208.162 211.428 208.604 211.014C209.045 210.599 209.477 210.174 209.898 209.739C210.32 209.303 210.73 208.858 211.13 208.403C211.53 207.948 211.919 207.483 212.297 207.01C212.675 206.536 213.041 206.053 213.395 205.562C213.75 205.071 214.092 204.571 214.423 204.063C214.753 203.556 215.071 203.04 215.377 202.517C215.683 201.994 215.976 201.464 216.256 200.927C216.536 200.39 216.804 199.846 217.058 199.296C217.312 198.746 217.553 198.19 217.78 197.629C218.008 197.067 218.222 196.501 218.422 195.929C218.622 195.357 218.808 194.781 218.981 194.2C219.154 193.619 219.312 193.035 219.457 192.446C219.601 191.858 219.732 191.266 219.848 190.672C219.964 190.077 220.065 189.48 220.153 188.88C220.24 188.281 220.313 187.68 220.372 187.077C220.43 186.474 220.474 185.869 220.504 185.264C220.533 184.659 220.548 184.054 220.549 183.448L220.549 125.137L222.635 125.137C233.159 125.137 241.787 116.509 241.787 105.984L241.787 92.0463C241.787 72.2301 225.669 56.1116 205.757 56.1116L205.748 56.1116ZM98.4177 41.5382C98.4177 39.1585 100.342 37.2147 102.732 37.2147L159.213 37.2147C161.593 37.2147 163.536 39.1585 163.536 41.5382L163.536 56.1116L98.4082 56.1116L98.4082 41.5382L98.4177 41.5382ZM165.452 125.99C165.452 141.16 153.031 153.581 137.861 153.581L117.096 153.581C101.926 153.581 89.5999 141.16 89.5999 125.99L89.5999 105.226C89.5999 90.0551 101.926 77.7293 117.096 77.7293L137.861 77.7293C153.031 77.7293 165.452 90.0551 165.452 105.226L165.452 125.99Z"   fill="url(#linear_fill_Tq_g9uqzYAA419HS4VLka)" >
</path>
<path d="M137.861 96.6732L117.115 96.6732C112.375 96.6732 108.516 100.523 108.516 105.263L108.516 126.009C108.516 130.75 112.365 134.599 117.115 134.599L137.851 134.599C142.592 134.599 146.442 130.75 146.442 126.009L146.442 105.263C146.442 100.523 142.602 96.6732 137.851 96.6732L137.861 96.6732Z"   fill="#FF8100" >
</path>
<defs>
<linearGradient id="linear_fill_Tq_g9uqzYAA419HS4VLka" x1="14.231689453125" y1="128" x2="241.7872314453125" y2="128" gradientUnits="userSpaceOnUse">
<stop offset="0" stop-color="#1D74EC"  />
<stop offset="1" stop-color="#A9458F"  />
</linearGradient>
</defs>
</svg>
