<!--
  - Copyright (c) 2025 周潮. All rights reserved.
  - Licensed under the Apache License, Version 2.0 (the "License");
  -  you may not use this file except in compliance with the License.
  -  You may obtain a copy of the License at
  -
  -       https://www.apache.org/licenses/LICENSE-2.0
  -
  -  Unless required by applicable law or agreed to in writing, software
  -  distributed under the License is distributed on an "AS IS" BASIS,
  -  WITHOUT WARRANTIES OR CONDITIONS OF ANY KIND, either express or implied.
  -  See the License for the specific language governing permissions and
  -  limitations under the License.
  -->

<svg xmlns="http://www.w3.org/2000/svg" xmlns:xlink="http://www.w3.org/1999/xlink" width="16" height="16" viewBox="0 0 16 16" fill="none">
<path d="M12.8593 3.50698L11.4062 3.50698L11.4062 2.59615C11.4062 2.57235 11.4056 2.54855 11.4044 2.52477C11.4032 2.50099 11.4014 2.47725 11.399 2.45355C11.3967 2.42987 11.3937 2.40625 11.3902 2.38269C11.3867 2.35914 11.3826 2.33569 11.378 2.31233C11.3733 2.28899 11.3681 2.26577 11.3622 2.24268C11.3564 2.21958 11.3501 2.19665 11.3432 2.17387C11.3362 2.15108 11.3287 2.12849 11.3207 2.10608C11.3127 2.08367 11.3041 2.06146 11.295 2.03948C11.2858 2.01748 11.2762 1.99571 11.266 1.97419C11.2558 1.95268 11.2451 1.93143 11.2338 1.91043C11.2226 1.88944 11.2109 1.86874 11.1986 1.84832C11.1864 1.82789 11.1736 1.80778 11.1604 1.78799C11.1472 1.7682 11.1334 1.74874 11.1193 1.72962C11.1051 1.7105 11.0904 1.69174 11.0753 1.67333C11.0602 1.65493 11.0447 1.6369 11.0287 1.61926C11.0127 1.60162 10.9962 1.58439 10.9794 1.56755C10.9626 1.55071 10.9454 1.5343 10.9277 1.5183C10.9101 1.50231 10.892 1.48676 10.8736 1.47165C10.8552 1.45655 10.8365 1.4419 10.8173 1.42771C10.7982 1.41352 10.7788 1.39981 10.759 1.38657C10.7392 1.37334 10.7191 1.3606 10.6987 1.34835C10.6782 1.3361 10.6575 1.32436 10.6365 1.31312C10.6155 1.30189 10.5943 1.29118 10.5728 1.28098C10.5512 1.27079 10.5295 1.26113 10.5075 1.25201C10.4855 1.24288 10.4633 1.2343 10.4409 1.22626C10.4185 1.21823 10.3959 1.21074 10.3731 1.20381C10.3503 1.19688 10.3274 1.19052 10.3043 1.18471C10.2812 1.17891 10.258 1.17367 10.2346 1.16901C10.2113 1.16434 10.1878 1.16025 10.1643 1.15673C10.1407 1.15321 10.1171 1.15028 10.0934 1.14792C10.0697 1.14556 10.046 1.14378 10.0222 1.14258C9.99842 1.14139 9.97462 1.14078 9.95081 1.14075L6.42073 1.14075C6.39693 1.14079 6.37315 1.14141 6.34937 1.14261C6.32561 1.14382 6.30187 1.1456 6.27818 1.14797C6.2545 1.15034 6.23089 1.15328 6.20734 1.15681C6.18381 1.16033 6.16036 1.16443 6.13701 1.16911C6.11367 1.17378 6.09046 1.17902 6.06737 1.18483C6.04429 1.19065 6.02137 1.19702 5.99859 1.20395C5.97582 1.21089 5.95323 1.21838 5.93082 1.22642C5.90842 1.23446 5.88623 1.24305 5.86423 1.25218C5.84226 1.26131 5.82051 1.27097 5.799 1.28117C5.7775 1.29136 5.75625 1.30208 5.73525 1.31331C5.71426 1.32455 5.69356 1.3363 5.67315 1.34855C5.65275 1.3608 5.63265 1.37354 5.61286 1.38678C5.59307 1.40001 5.57364 1.41373 5.55451 1.42792C5.5354 1.4421 5.51665 1.45675 5.49825 1.47186C5.47986 1.48697 5.46184 1.50252 5.4442 1.51851C5.42657 1.5345 5.40936 1.55092 5.39251 1.56776C5.37568 1.58459 5.35928 1.60183 5.34329 1.61948C5.32731 1.63711 5.31176 1.65513 5.29667 1.67354C5.28157 1.69193 5.26693 1.71069 5.25275 1.72982C5.23856 1.74893 5.22486 1.76839 5.21162 1.78818C5.1984 1.80797 5.18567 1.82807 5.17342 1.84849C5.16118 1.86891 5.14945 1.88961 5.13821 1.9106C5.127 1.93159 5.11628 1.95284 5.10609 1.97435C5.0959 1.99587 5.08625 2.01762 5.07712 2.0396C5.06801 2.06159 5.05943 2.08379 5.0514 2.10619C5.04337 2.12861 5.03589 2.1512 5.02895 2.17398C5.02204 2.19675 5.01568 2.21968 5.00987 2.24277C5.00407 2.26585 4.99884 2.28907 4.99417 2.31241C4.98951 2.33576 4.98542 2.3592 4.9819 2.38274C4.97839 2.40628 4.97545 2.4299 4.97309 2.45358C4.97073 2.47727 4.96895 2.50101 4.96776 2.52479C4.96657 2.54856 4.96595 2.57235 4.96592 2.59615L4.96592 3.50698L3.14073 3.50698C1.89689 3.50698 0.889481 4.51439 0.889481 5.7529L0.889481 6.62401C0.889481 7.28179 1.42874 7.82104 2.08651 7.82104L2.1517 7.82104L2.1517 11.4655C2.15173 11.5033 2.15267 11.5412 2.1545 11.579C2.15634 11.6168 2.15909 11.6545 2.16275 11.6922C2.16641 11.7299 2.17096 11.7675 2.17642 11.8049C2.18188 11.8424 2.18823 11.8797 2.19548 11.9169C2.20273 11.954 2.21087 11.991 2.21989 12.0277C2.22892 12.0645 2.23883 12.101 2.24961 12.1373C2.26038 12.1736 2.27202 12.2096 2.28453 12.2453C2.29704 12.281 2.3104 12.3165 2.32461 12.3516C2.33882 12.3866 2.35386 12.4214 2.36973 12.4557C2.38561 12.4901 2.4023 12.5241 2.4198 12.5576C2.43731 12.5912 2.45561 12.6243 2.4747 12.657C2.49381 12.6897 2.51368 12.7219 2.53431 12.7536C2.55497 12.7853 2.57636 12.8166 2.5985 12.8473C2.62065 12.878 2.64351 12.9081 2.66709 12.9377C2.69068 12.9673 2.71498 12.9964 2.73995 13.0248C2.76495 13.0532 2.79061 13.0811 2.81692 13.1083C2.84323 13.1355 2.8702 13.162 2.89779 13.188C2.92539 13.2139 2.95359 13.2391 2.98239 13.2637C3.0112 13.2882 3.04059 13.3121 3.07053 13.3352C3.1005 13.3584 3.13098 13.3808 3.162 13.4025C3.19303 13.4242 3.22456 13.4451 3.25659 13.4652C3.28864 13.4854 3.32114 13.5048 3.35409 13.5234C3.38706 13.542 3.42046 13.5598 3.45428 13.5768C3.48809 13.5938 3.52231 13.61 3.5569 13.6254C3.5915 13.6407 3.62645 13.6553 3.66173 13.669C3.69704 13.6827 3.73264 13.6955 3.76854 13.7074C3.80445 13.7194 3.84064 13.7305 3.87707 13.7408C3.91353 13.751 3.9502 13.7604 3.98707 13.7689C4.02398 13.7773 4.06106 13.7849 4.09831 13.7916C4.13557 13.7983 4.17297 13.8041 4.2105 13.809C4.24804 13.8139 4.28568 13.8179 4.3234 13.821C4.36112 13.8241 4.3989 13.8263 4.43673 13.8276L4.43673 14.2667C4.43673 14.2764 4.43698 14.2861 4.43745 14.2957C4.43793 14.3054 4.43865 14.3151 4.43959 14.3248C4.44054 14.3344 4.44173 14.344 4.44315 14.3536C4.44457 14.3632 4.44623 14.3728 4.44812 14.3823C4.45003 14.3918 4.45215 14.4013 4.4545 14.4107C4.45686 14.4201 4.45943 14.4294 4.46225 14.4387C4.46507 14.448 4.46812 14.4572 4.47137 14.4663C4.47465 14.4754 4.47814 14.4845 4.48184 14.4935C4.48556 14.5024 4.4895 14.5113 4.49364 14.52C4.49779 14.5288 4.50215 14.5375 4.50671 14.546C4.51128 14.5546 4.51606 14.563 4.52104 14.5713C4.52604 14.5796 4.53123 14.5878 4.53661 14.5959C4.542 14.604 4.54757 14.6119 4.55336 14.6197C4.55914 14.6275 4.56511 14.6351 4.57125 14.6426C4.5774 14.6501 4.58375 14.6574 4.59025 14.6646C4.59676 14.6718 4.60345 14.6788 4.61031 14.6857C4.61717 14.6926 4.62418 14.6992 4.63137 14.7058C4.63856 14.7123 4.6459 14.7186 4.65339 14.7248C4.66089 14.7309 4.66854 14.7369 4.67632 14.7427C4.68412 14.7484 4.69204 14.754 4.70011 14.7594C4.70817 14.7648 4.71636 14.77 4.72467 14.775C4.733 14.7799 4.74143 14.7847 4.74998 14.7893C4.75854 14.7939 4.7672 14.7982 4.77596 14.8024C4.78473 14.8065 4.79359 14.8105 4.80256 14.8142C4.81153 14.8179 4.82056 14.8214 4.82968 14.8246C4.83882 14.8279 4.84803 14.8309 4.85731 14.8337C4.86659 14.8366 4.87593 14.8392 4.88534 14.8415C4.89475 14.8439 4.90421 14.846 4.91371 14.8479C4.92323 14.8498 4.93278 14.8514 4.94237 14.8529C4.95196 14.8543 4.96159 14.8555 4.97125 14.8564C4.9809 14.8574 4.99056 14.8581 5.00025 14.8586C5.00993 14.859 5.01964 14.8593 5.02932 14.8593C5.03903 14.8593 5.04871 14.859 5.0584 14.8586C5.06809 14.8581 5.07776 14.8574 5.08742 14.8564C5.09707 14.8555 5.10668 14.8543 5.11628 14.8529C5.12587 14.8514 5.13543 14.8498 5.14493 14.8479C5.15445 14.846 5.16392 14.8439 5.17332 14.8415C5.18273 14.8392 5.19207 14.8366 5.20136 14.8337C5.21064 14.8309 5.21984 14.8279 5.22896 14.8246C5.23811 14.8214 5.24715 14.8179 5.25611 14.8142C5.26507 14.8105 5.27393 14.8065 5.2827 14.8024C5.29146 14.7982 5.30012 14.7939 5.30867 14.7893C5.31723 14.7847 5.32567 14.7799 5.33398 14.775C5.34231 14.77 5.3505 14.7648 5.35856 14.7594C5.36662 14.754 5.37456 14.7484 5.38234 14.7427C5.39014 14.7369 5.39778 14.7309 5.40526 14.7248C5.41276 14.7186 5.42011 14.7123 5.42729 14.7058C5.43448 14.6992 5.44151 14.6926 5.44836 14.6857C5.45521 14.6788 5.4619 14.6718 5.46842 14.6646C5.47493 14.6574 5.48126 14.6501 5.4874 14.6426C5.49356 14.6351 5.49953 14.6275 5.50531 14.6197C5.51109 14.6119 5.51667 14.604 5.52206 14.5959C5.52745 14.5878 5.53264 14.5796 5.53761 14.5713C5.54261 14.563 5.54739 14.5546 5.55195 14.546C5.55653 14.5375 5.56089 14.5288 5.56503 14.52C5.56918 14.5113 5.57311 14.5024 5.57681 14.4935C5.58053 14.4845 5.58403 14.4754 5.58728 14.4663C5.59056 14.4572 5.59359 14.448 5.5964 14.4387C5.59922 14.4294 5.60181 14.4201 5.60417 14.4107C5.60653 14.4013 5.60865 14.3918 5.61053 14.3823C5.61243 14.3728 5.61409 14.3632 5.61551 14.3536C5.61693 14.344 5.61812 14.3344 5.61907 14.3248C5.62003 14.3151 5.62075 14.3054 5.62121 14.2957C5.62168 14.2861 5.62192 14.2764 5.62192 14.2667L5.62192 13.8359L10.3129 13.8359L10.3129 14.2667C10.3129 14.2764 10.3131 14.2861 10.3136 14.2957C10.3141 14.3054 10.3148 14.3151 10.3157 14.3248C10.3167 14.3344 10.3179 14.344 10.3193 14.3536C10.3207 14.3632 10.3224 14.3728 10.3243 14.3823C10.3262 14.3918 10.3283 14.4013 10.3306 14.4107C10.333 14.4201 10.3356 14.4294 10.3384 14.4387C10.3412 14.448 10.3443 14.4572 10.3475 14.4663C10.3508 14.4754 10.3543 14.4845 10.358 14.4935C10.3617 14.5024 10.3656 14.5113 10.3698 14.52C10.3739 14.5288 10.3783 14.5375 10.3829 14.546C10.3874 14.5546 10.3922 14.563 10.3972 14.5713C10.4022 14.5796 10.4074 14.5878 10.4128 14.5959C10.4182 14.604 10.4237 14.6119 10.4295 14.6197C10.4353 14.6275 10.4412 14.6351 10.4474 14.6426C10.4536 14.6501 10.4599 14.6574 10.4664 14.6646C10.4729 14.6718 10.4796 14.6788 10.4864 14.6857C10.4933 14.6926 10.5003 14.6992 10.5075 14.7058C10.5147 14.7123 10.522 14.7186 10.5295 14.7248C10.537 14.7309 10.5447 14.7369 10.5525 14.7427C10.5603 14.7484 10.5682 14.754 10.5762 14.7594C10.5843 14.7648 10.5925 14.77 10.6008 14.775C10.6091 14.7799 10.6176 14.7847 10.6261 14.7893C10.6347 14.7939 10.6433 14.7982 10.6521 14.8024C10.6609 14.8065 10.6697 14.8105 10.6787 14.8142C10.6877 14.8179 10.6967 14.8214 10.7058 14.8246C10.715 14.8279 10.7242 14.8309 10.7334 14.8337C10.7427 14.8366 10.7521 14.8392 10.7615 14.8415C10.7709 14.8439 10.7804 14.846 10.7899 14.8479C10.7994 14.8498 10.8089 14.8514 10.8185 14.8529C10.8281 14.8543 10.8377 14.8555 10.8474 14.8564C10.857 14.8574 10.8667 14.8581 10.8764 14.8586C10.8861 14.859 10.8958 14.8593 10.9055 14.8593C10.9152 14.8593 10.9249 14.859 10.9346 14.8586C10.9442 14.8581 10.9539 14.8574 10.9636 14.8564C10.9732 14.8555 10.9828 14.8543 10.9924 14.8529C11.002 14.8514 11.0116 14.8498 11.0211 14.8479C11.0306 14.846 11.0401 14.8439 11.0495 14.8415C11.0589 14.8392 11.0682 14.8366 11.0775 14.8337C11.0868 14.8309 11.096 14.8279 11.1051 14.8246C11.1142 14.8214 11.1233 14.8179 11.1322 14.8142C11.1412 14.8105 11.1501 14.8065 11.1588 14.8024C11.1676 14.7982 11.1763 14.7939 11.1848 14.7893C11.1934 14.7847 11.2018 14.7799 11.2101 14.775C11.2184 14.77 11.2266 14.7648 11.2347 14.7594C11.2428 14.754 11.2507 14.7484 11.2585 14.7427C11.2663 14.7369 11.2739 14.7309 11.2814 14.7248C11.2889 14.7186 11.2962 14.7123 11.3034 14.7058C11.3106 14.6992 11.3177 14.6926 11.3245 14.6857C11.3314 14.6788 11.338 14.6718 11.3446 14.6646C11.3511 14.6574 11.3574 14.6501 11.3636 14.6426C11.3697 14.6351 11.3757 14.6275 11.3814 14.6197C11.3872 14.6119 11.3928 14.604 11.3982 14.5959C11.4036 14.5878 11.4088 14.5796 11.4138 14.5713C11.4187 14.563 11.4235 14.5546 11.4281 14.546C11.4327 14.5375 11.437 14.5288 11.4412 14.52C11.4453 14.5113 11.4492 14.5024 11.453 14.4935C11.4567 14.4845 11.4602 14.4754 11.4634 14.4663C11.4667 14.4572 11.4697 14.448 11.4726 14.4387C11.4754 14.4294 11.478 14.4201 11.4803 14.4107C11.4827 14.4013 11.4848 14.3918 11.4867 14.3823C11.4886 14.3728 11.4902 14.3632 11.4917 14.3536C11.4931 14.344 11.4943 14.3344 11.4952 14.3248C11.4962 14.3151 11.4969 14.3054 11.4974 14.2957C11.4978 14.2861 11.4981 14.2764 11.4981 14.2667L11.4981 13.8276C11.5359 13.8263 11.5737 13.8241 11.6114 13.8211C11.6492 13.818 11.6868 13.814 11.7244 13.8091C11.7619 13.8042 11.7994 13.7985 11.8366 13.7918C11.8739 13.7851 11.911 13.7775 11.9479 13.769C11.9848 13.7606 12.0215 13.7512 12.0579 13.741C12.0944 13.7308 12.1306 13.7197 12.1665 13.7077C12.2025 13.6957 12.2381 13.6829 12.2734 13.6693C12.3087 13.6556 12.3437 13.6411 12.3783 13.6257C12.4129 13.6104 12.4471 13.5942 12.4809 13.5772C12.5148 13.5602 12.5482 13.5424 12.5812 13.5238C12.6142 13.5052 12.6467 13.4858 12.6787 13.4656C12.7108 13.4455 12.7423 13.4245 12.7734 13.4029C12.8044 13.3812 12.8349 13.3588 12.8649 13.3356C12.8949 13.3125 12.9243 13.2886 12.9531 13.2641C12.9819 13.2395 13.0101 13.2143 13.0377 13.1884C13.0653 13.1624 13.0923 13.1359 13.1187 13.1087C13.145 13.0815 13.1707 13.0536 13.1957 13.0252C13.2207 12.9967 13.2449 12.9677 13.2686 12.9381C13.2922 12.9085 13.315 12.8783 13.3372 12.8476C13.3594 12.8169 13.3808 12.7857 13.4014 12.754C13.4221 12.7222 13.442 12.69 13.4611 12.6573C13.4802 12.6246 13.4985 12.5915 13.516 12.5579C13.5335 12.5244 13.5502 12.4904 13.5661 12.456C13.582 12.4216 13.597 12.3869 13.6113 12.3518C13.6255 12.3167 13.6389 12.2813 13.6514 12.2456C13.6639 12.2098 13.6755 12.1738 13.6863 12.1375C13.6971 12.1012 13.707 12.0647 13.716 12.0279C13.7251 11.9911 13.7332 11.9541 13.7405 11.917C13.7477 11.8798 13.7541 11.8425 13.7596 11.805C13.765 11.7676 13.7696 11.73 13.7732 11.6923C13.7769 11.6546 13.7796 11.6168 13.7815 11.579C13.7833 11.5412 13.7843 11.5034 13.7843 11.4655L13.7843 7.82104L13.9147 7.82104C14.5724 7.82104 15.1117 7.28179 15.1117 6.62401L15.1117 5.7529C15.1117 4.51439 14.1043 3.50698 12.8598 3.50698L12.8593 3.50698ZM6.15111 2.59615C6.15111 2.44741 6.2714 2.32593 6.42073 2.32593L9.95081 2.32593C10.0996 2.32593 10.221 2.44741 10.221 2.59615L10.221 3.50698L6.15051 3.50698L6.15051 2.59615L6.15111 2.59615ZM10.3407 7.87439C10.3407 8.82253 9.56443 9.59883 8.61629 9.59883L7.31851 9.59883C6.37037 9.59883 5.6 8.82253 5.6 7.87439L5.6 6.57661C5.6 5.62845 6.37037 4.85809 7.31851 4.85809L8.61629 4.85809C9.56443 4.85809 10.3407 5.62845 10.3407 6.57661L10.3407 7.87439Z"   fill="url(#linear_fill_Tq_g9uqzYAA419HS4VLka)" >
</path>
<path d="M8.6163 6.04205L7.31971 6.04205C7.02341 6.04205 6.78223 6.28265 6.78223 6.57894L6.78223 7.87554C6.78223 8.17183 7.02282 8.41241 7.31971 8.41241L8.61571 8.41241C8.91201 8.41241 9.1526 8.17183 9.1526 7.87554L9.1526 6.57894C9.1526 6.28265 8.9126 6.04205 8.61571 6.04205L8.6163 6.04205Z"   fill="#FF8100" >
</path>
<defs>
<linearGradient id="linear_fill_Tq_g9uqzYAA419HS4VLka" x1="0.8894805908203125" y1="8" x2="15.1116943359375" y2="8" gradientUnits="userSpaceOnUse">
<stop offset="0" stop-color="#1D74EC"  />
<stop offset="1" stop-color="#A9458F"  />
</linearGradient>
</defs>
</svg>
